<svg xmlns="http://www.w3.org/2000/svg" xmlns:xlink="http://www.w3.org/1999/xlink" width="1080" zoomAndPan="magnify" viewBox="0 0 810 809.999993" height="1080" preserveAspectRatio="xMidYMid meet" version="1.0"><defs><clipPath id="b4e7e8ebfb"><path d="M 0 451 L 809 451 L 809 809.90625 L 0 809.90625 Z M 0 451 " clip-rule="nonzero"/></clipPath><clipPath id="89eb28cd59"><path d="M 613 757 L 676.683594 757 L 676.683594 801 L 613 801 Z M 613 757 " clip-rule="nonzero"/></clipPath><clipPath id="6a7b349d00"><path d="M 601 806 L 605 806 L 605 809.753906 L 601 809.753906 Z M 601 806 " clip-rule="nonzero"/></clipPath></defs><g clip-path="url(#b4e7e8ebfb)"><path fill="#00892c" d="M 808.613281 515.183594 L 808.613281 810.035156 L 0.757812 810.035156 L 0.757812 480.996094 L 1.371094 480.996094 C 1.609375 480.820312 1.917969 480.707031 2.304688 480.722656 C 25.429688 481.945312 49.308594 479.066406 71.824219 474.078125 C 91.070312 469.816406 108.980469 461.097656 128.257812 457.265625 C 142.726562 454.386719 157.371094 454.515625 171.980469 456.011719 C 183.550781 457.203125 195.171875 459.132812 206.855469 458.652344 C 216.976562 458.230469 226.648438 454.964844 236.65625 453.632812 C 258.527344 450.71875 280.925781 451.894531 302.75 454.675781 C 367.40625 462.914062 427.160156 489.714844 489.679688 506.691406 C 491.160156 507.09375 492.65625 507.476562 494.152344 507.878906 C 494.28125 507.414062 494.601562 506.996094 495.183594 506.800781 C 507.042969 502.910156 518.933594 499.175781 530.859375 495.492188 C 575.707031 481.640625 621.152344 467.675781 667.417969 459.375 C 690.011719 455.320312 710.484375 455.09375 732.433594 463.460938 C 760.851562 474.289062 784.878906 493.351562 808.082031 512.515625 C 808.96875 513.253906 808.644531 514.25 807.921875 514.796875 Z M 808.613281 515.183594 " fill-opacity="1" fill-rule="nonzero"/></g><path fill="#000000" d="M 210.394531 543.03125 C 205.230469 546.894531 200.078125 550.773438 194.914062 554.632812 C 193.257812 555.871094 191.648438 553.070312 193.289062 551.847656 C 198.453125 547.988281 203.601562 544.109375 208.769531 540.25 C 210.425781 539.011719 212.035156 541.808594 210.394531 543.03125 Z M 230.878906 540.507812 C 225.972656 544.367188 221.078125 548.246094 216.171875 552.105469 C 214.546875 553.394531 216.832031 555.644531 218.441406 554.375 C 223.347656 550.515625 228.242188 546.636719 233.148438 542.777344 C 234.789062 541.503906 232.488281 539.234375 230.878906 540.507812 Z M 243.269531 540.507812 C 239.152344 544.367188 235.015625 548.246094 230.894531 552.105469 C 229.382812 553.523438 231.667969 555.792969 233.164062 554.375 C 237.285156 550.515625 241.421875 546.636719 245.539062 542.777344 C 247.054688 541.359375 244.785156 539.089844 243.269531 540.507812 Z M 256.371094 554.375 C 259.71875 550.515625 263.082031 546.636719 266.429688 542.777344 C 267.796875 541.230469 265.527344 538.945312 264.160156 540.507812 C 260.8125 544.367188 257.449219 548.246094 254.101562 552.105469 C 252.75 553.667969 255.019531 555.953125 256.371094 554.375 Z M 279.589844 554.375 C 283.195312 550.515625 286.816406 546.636719 290.421875 542.777344 C 291.839844 541.261719 289.570312 538.996094 288.152344 540.507812 C 284.546875 544.367188 280.925781 548.246094 277.324219 552.105469 C 275.90625 553.621094 278.175781 555.902344 279.589844 554.375 Z M 257.289062 704.109375 C 252.121094 707.96875 246.972656 711.847656 241.808594 715.707031 C 240.164062 716.929688 241.773438 719.730469 243.433594 718.492188 C 248.597656 714.628906 253.746094 710.753906 258.914062 706.890625 C 260.554688 705.652344 258.945312 702.855469 257.289062 704.109375 Z M 279.414062 704.351562 C 274.507812 708.210938 269.613281 712.089844 264.707031 715.949219 C 263.082031 717.238281 265.367188 719.488281 266.976562 718.21875 C 271.882812 714.355469 276.777344 710.480469 281.683594 706.617188 C 283.308594 705.347656 281.023438 703.078125 279.414062 704.351562 Z M 291.789062 704.351562 C 287.671875 708.210938 283.535156 712.089844 279.414062 715.949219 C 277.902344 717.363281 280.1875 719.632812 281.683594 718.21875 C 285.804688 714.355469 289.9375 710.480469 294.058594 706.617188 C 295.585938 705.21875 293.300781 702.933594 291.789062 704.351562 Z M 312.679688 704.351562 C 309.332031 708.210938 305.96875 712.089844 302.621094 715.949219 C 301.269531 717.511719 303.539062 719.792969 304.890625 718.21875 C 308.234375 714.355469 311.597656 710.480469 314.945312 706.617188 C 316.316406 705.074219 314.046875 702.789062 312.679688 704.351562 Z M 336.671875 704.351562 C 333.066406 708.210938 329.445312 712.089844 325.839844 715.949219 C 324.425781 717.460938 326.695312 719.746094 328.109375 718.21875 C 331.714844 714.355469 335.335938 710.480469 338.941406 706.617188 C 340.355469 705.121094 338.085938 702.835938 336.671875 704.351562 Z M 627.785156 629.957031 C 622.617188 633.820312 617.46875 637.695312 612.300781 641.558594 C 610.660156 642.78125 612.269531 645.578125 613.929688 644.339844 C 619.09375 640.480469 624.242188 636.601562 629.410156 632.742188 C 631.035156 631.519531 629.441406 628.71875 627.785156 629.957031 Z M 649.894531 630.214844 C 644.984375 634.078125 640.09375 637.953125 635.1875 641.816406 C 633.5625 643.101562 635.847656 645.355469 637.453125 644.082031 C 642.363281 640.222656 647.253906 636.34375 652.164062 632.484375 C 653.789062 631.195312 651.503906 628.945312 649.894531 630.214844 Z M 662.269531 630.214844 C 658.148438 634.078125 654.015625 637.953125 649.894531 641.816406 C 648.382812 643.230469 650.667969 645.5 652.164062 644.082031 C 656.28125 640.222656 660.417969 636.34375 664.539062 632.484375 C 666.066406 631.066406 663.78125 628.800781 662.269531 630.214844 Z M 683.171875 630.214844 C 679.828125 634.078125 676.464844 637.953125 673.117188 641.816406 C 671.765625 643.375 674.03125 645.660156 675.386719 644.082031 C 678.730469 640.222656 682.09375 636.34375 685.441406 632.484375 C 686.792969 630.921875 684.523438 628.636719 683.171875 630.214844 Z M 707.152344 630.214844 C 703.546875 634.078125 699.925781 637.953125 696.320312 641.816406 C 694.90625 643.328125 697.175781 645.613281 698.589844 644.082031 C 702.195312 640.222656 705.816406 636.34375 709.421875 632.484375 C 710.851562 630.972656 708.566406 628.6875 707.152344 630.214844 Z M 807.34375 550.996094 C 782.398438 546.429688 757.664062 544.449219 732.351562 546.21875 C 709.386719 547.84375 687.210938 548.164062 664.363281 544.480469 C 608.683594 535.519531 553.179688 523.566406 498.640625 509.070312 C 515.441406 503.570312 532.324219 498.308594 549.253906 493.238281 C 549.945312 493.03125 550.410156 492.402344 550.410156 491.695312 C 550.410156 490.617188 549.347656 489.828125 548.320312 490.152344 C 542.492188 491.9375 536.667969 493.722656 530.859375 495.523438 C 518.933594 499.207031 507.042969 502.941406 495.183594 506.835938 C 494.601562 507.011719 494.296875 507.414062 494.167969 507.878906 C 492.671875 507.476562 491.175781 507.09375 489.679688 506.691406 C 466.183594 500.320312 443.074219 492.546875 419.964844 484.890625 C 418.917969 484.535156 417.824219 485.324219 417.824219 486.433594 C 417.824219 487.125 418.261719 487.738281 418.917969 487.964844 C 435.011719 493.496094 451.105469 499.03125 467.472656 503.777344 C 525.855469 520.75 585.429688 533.621094 645.226562 544.382812 C 671.265625 549.066406 696.5625 551.996094 723.019531 550.113281 C 751.40625 548.101562 778.375 548.9375 806.523438 554.085938 C 808.515625 554.472656 809.386719 551.367188 807.34375 550.996094 Z M 565.667969 488.347656 C 572.152344 486.46875 578.621094 484.601562 585.121094 482.765625 C 607.894531 476.347656 630.792969 470.21875 653.933594 465.3125 C 674.066406 461.03125 694.4375 456.945312 714.890625 461.496094 C 749.78125 469.253906 778.875 492.5625 805.8125 514.796875 C 807.40625 516.117188 809.691406 513.863281 808.082031 512.546875 C 784.878906 493.386719 760.851562 474.320312 732.433594 463.492188 C 710.480469 455.128906 690.011719 455.351562 667.417969 459.40625 C 632.757812 465.632812 598.558594 475.027344 564.734375 485.164062 C 564.023438 485.371094 563.542969 486.03125 563.542969 486.757812 C 563.542969 487.867188 564.605469 488.65625 565.667969 488.347656 Z M 403.632812 479.550781 C 370.625 468.835938 337.394531 459.085938 302.75 454.675781 C 280.925781 451.894531 258.527344 450.71875 236.65625 453.632812 C 226.648438 454.964844 216.976562 458.230469 206.855469 458.652344 C 195.171875 459.132812 183.550781 457.203125 171.980469 456.011719 C 157.371094 454.515625 142.726562 454.386719 128.257812 457.265625 C 116.945312 459.519531 106.097656 463.445312 95.171875 467.175781 C 94.433594 467.433594 93.917969 468.125 93.917969 468.929688 C 93.917969 470.1875 95.140625 471.085938 96.332031 470.699219 C 99.003906 469.832031 101.65625 468.914062 104.296875 467.949219 C 120.117188 462.140625 135.742188 458.136719 152.71875 458.121094 C 175.296875 458.101562 198.148438 465.183594 220.566406 460.097656 C 241.164062 455.417969 261.695312 454.484375 282.777344 455.929688 C 312.933594 458.007812 342.804688 464.167969 371.785156 472.632812 C 382.164062 475.65625 392.433594 479.003906 402.667969 482.460938 C 403.648438 482.796875 404.679688 482.058594 404.679688 481.011719 C 404.695312 480.335938 404.257812 479.742188 403.632812 479.550781 Z M 81.125 471.683594 C 78.050781 472.566406 74.960938 473.386719 71.839844 474.078125 C 49.324219 479.066406 25.445312 481.945312 2.320312 480.722656 C 0.242188 480.609375 0.257812 483.828125 2.320312 483.941406 C 19.875 484.875 37.804688 483.167969 55.117188 480.480469 C 64.179688 479.066406 73.15625 477.214844 82.007812 474.898438 C 82.734375 474.707031 83.25 474.03125 83.25 473.273438 C 83.25 472.164062 82.1875 471.375 81.125 471.683594 Z M 81.125 471.683594 " fill-opacity="1" fill-rule="nonzero"/><path fill="#fffcfc" d="M 557.019531 673.113281 L 522.667969 677.320312 L 493.710938 659.226562 C 492.972656 658.765625 492.175781 658.492188 491.363281 658.382812 C 485.59375 656.792969 477.652344 658.695312 472.179688 666.875 C 463.453125 680.082031 459.902344 689.242188 457.539062 705.703125 C 457.027344 713.402344 459.890625 717.542969 463.734375 719.96875 C 465.105469 723.242188 476.992188 753.558594 464.394531 787.566406 C 462.609375 792.378906 465.066406 797.726562 469.882812 799.507812 C 470.949219 799.902344 472.035156 800.089844 473.109375 800.089844 C 476.886719 800.089844 480.441406 797.769531 481.828125 794.019531 C 494.851562 758.867188 486.324219 727.691406 482.289062 716.410156 C 482.449219 715.777344 482.605469 715.097656 482.753906 714.359375 C 483.21875 710.683594 484.160156 706.953125 485.363281 703.273438 C 477.800781 687.984375 479 671.980469 479.089844 670.929688 C 479.421875 667.035156 482.742188 663.988281 486.652344 663.988281 C 486.863281 663.988281 487.074219 663.996094 487.289062 664.015625 C 491.449219 664.371094 494.550781 668.039062 494.207031 672.199219 C 494.171875 672.632812 493.898438 676.589844 494.621094 681.945312 C 495.210938 680.753906 495.777344 679.605469 496.308594 678.515625 C 496.839844 677.625 497.285156 676.6875 497.65625 675.722656 L 518.144531 688.523438 C 519.09375 689.117188 520.1875 689.429688 521.296875 689.429688 C 521.539062 689.429688 521.777344 689.414062 522.019531 689.386719 L 558.464844 684.925781 C 561.726562 684.523438 564.046875 681.558594 563.644531 678.296875 C 563.25 675.035156 560.285156 672.714844 557.019531 673.113281 Z M 557.019531 673.113281 " fill-opacity="1" fill-rule="nonzero"/><g clip-path="url(#89eb28cd59)"><path fill="#fffcfc" d="M 674.625 760.742188 L 675.554688 758.574219 C 675.554688 758.574219 676.585938 757.230469 673.382812 757.4375 C 670.179688 757.644531 663.777344 763.84375 660.054688 765.597656 C 656.335938 767.355469 646.210938 766.320312 646.210938 766.320312 C 646.210938 766.320312 639.804688 773.65625 632.261719 772.003906 C 632.164062 773.203125 632.25 776.070312 632.636719 779.128906 C 631.523438 777.746094 630.363281 776.710938 629.535156 776.285156 C 628.558594 778.570312 619.621094 779.519531 617.21875 782.476562 C 616.378906 783.511719 615.953125 784.578125 615.761719 785.59375 L 613.574219 782.289062 C 613.574219 782.289062 612.511719 788.460938 613.875 790.273438 C 615.238281 792.082031 618.578125 791.925781 618.578125 791.925781 L 618.476562 791.667969 C 618.792969 791.742188 619.011719 791.765625 619.011719 791.765625 L 621.960938 795.257812 L 621.785156 792.089844 C 622.480469 792.496094 623.34375 792.792969 624.085938 792.421875 C 625.625 791.65625 625.183594 790.933594 625.183594 790.933594 L 624.566406 790.203125 L 625.558594 789.882812 C 625.558594 789.882812 630.753906 791.328125 635.019531 790.808594 C 635.464844 790.136719 635.75 789.421875 635.902344 788.683594 C 637.855469 790.140625 642.863281 791.265625 647.824219 791.917969 L 646.617188 798.285156 L 639.375 798.945312 C 638.980469 798.984375 638.679688 799.324219 638.699219 799.722656 C 638.71875 800.117188 639.046875 800.429688 639.441406 800.429688 L 649.824219 800.429688 C 650.1875 800.429688 650.496094 800.171875 650.558594 799.8125 C 650.621094 799.457031 650.414062 799.109375 650.074219 798.988281 L 648.71875 798.507812 L 650.53125 792.230469 C 652.5625 792.433594 654.480469 792.542969 656.054688 792.558594 C 656.609375 792.949219 657.265625 793.222656 657.976562 793.328125 L 660.589844 798.257812 L 653.882812 798.949219 C 653.492188 798.988281 653.195312 799.332031 653.21875 799.726562 C 653.238281 800.121094 653.566406 800.433594 653.960938 800.433594 L 664.34375 800.433594 C 664.699219 800.433594 665.007812 800.179688 665.074219 799.828125 C 665.140625 799.476562 664.953125 799.128906 664.621094 798.996094 L 662.910156 798.3125 L 660.835938 792.84375 C 661.683594 792.386719 662.351562 791.671875 662.726562 790.808594 C 673.59375 784.613281 672.25 771.488281 672.25 771.488281 C 672.25 771.488281 674.003906 769.421875 675.246094 768.390625 C 676.484375 767.355469 675.96875 764.980469 676.070312 764.050781 C 676.171875 763.121094 674.3125 764.566406 674.3125 764.566406 C 674.3125 764.566406 676.070312 762.5 676.175781 761.261719 C 676.277344 760.019531 674.625 760.742188 674.625 760.742188 Z M 619.546875 789.015625 C 618.910156 788.949219 618.449219 788.375 618.515625 787.738281 C 618.585938 787.097656 619.160156 786.636719 619.796875 786.707031 C 620.4375 786.777344 620.898438 787.351562 620.828125 787.988281 C 620.757812 788.625 620.183594 789.085938 619.546875 789.015625 Z M 619.546875 789.015625 " fill-opacity="1" fill-rule="nonzero"/></g><path fill="#fffcfc" d="M 529.480469 632.492188 C 529.894531 624.875 525.925781 615.566406 518.734375 613.664062 C 511.539062 611.761719 503.484375 617.894531 500.078125 624.722656 C 484.210938 622.132812 472.21875 623.019531 471.042969 627.464844 C 469.945312 631.609375 478.5625 637.71875 491.96875 643.058594 C 492.070312 642.179688 492.230469 641.292969 492.464844 640.410156 C 493.976562 634.691406 503.574219 634.488281 512.414062 636.824219 C 521.253906 639.160156 529.496094 644.078125 527.984375 649.800781 C 527.746094 650.695312 527.445312 651.558594 527.089844 652.386719 C 541.570312 654.4375 552.261719 653.40625 553.371094 649.226562 C 554.546875 644.78125 544.554688 638.082031 529.480469 632.492188 Z M 529.480469 632.492188 " fill-opacity="1" fill-rule="nonzero"/><path fill="#fffcfc" d="M 494.046875 640.828125 C 491.683594 649.761719 497.011719 658.917969 505.945312 661.277344 C 514.882812 663.640625 524.039062 658.3125 526.402344 649.382812 C 528.765625 640.449219 496.410156 631.894531 494.046875 640.828125 Z M 494.046875 640.828125 " fill-opacity="1" fill-rule="nonzero"/><path fill="#fffcfc" d="M 529.726562 736.488281 C 529.726562 737.5 529.085938 738.4375 527.925781 739.265625 C 527.75 739.390625 527.554688 739.515625 527.355469 739.636719 C 526.957031 738.816406 526.011719 738.179688 524.734375 737.6875 C 521.019531 736.257812 514.578125 736.054688 511.203125 736.054688 C 507.609375 736.054688 500.535156 736.289062 496.984375 737.984375 C 496.191406 738.359375 495.578125 738.8125 495.214844 739.347656 C 495.171875 739.320312 495.128906 739.292969 495.089844 739.261719 C 493.929688 738.4375 493.285156 737.496094 493.285156 736.484375 C 493.285156 730.457031 496.859375 725.171875 502.179688 722.28125 C 501.476562 721.828125 500.792969 721.367188 500.132812 720.894531 C 494.660156 724.265625 491.054688 729.996094 491.054688 736.484375 C 491.054688 738.398438 492.164062 739.960938 494.011719 741.199219 C 494.425781 741.476562 494.875 741.742188 495.363281 741.988281 C 495.316406 742.269531 495.292969 742.558594 495.3125 742.859375 L 497.046875 765.867188 C 497.199219 767.90625 499 769.574219 501.042969 769.574219 L 521.972656 769.574219 C 524.019531 769.574219 525.816406 767.90625 525.96875 765.867188 L 527.703125 742.859375 C 527.726562 742.558594 527.699219 742.269531 527.652344 741.988281 C 528.140625 741.742188 528.589844 741.480469 529.003906 741.199219 C 530.851562 739.960938 531.960938 738.398438 531.960938 736.488281 C 531.960938 729.121094 527.316406 722.738281 520.574219 719.664062 C 520.550781 720.429688 520.40625 721.1875 520.148438 721.925781 C 525.847656 724.722656 529.726562 730.199219 529.726562 736.488281 Z M 526.078125 740.515625 C 526.078125 742.15625 519.417969 743.488281 511.203125 743.488281 C 502.988281 743.488281 496.328125 742.15625 496.328125 740.515625 C 496.328125 738.871094 502.988281 737.539062 511.203125 737.539062 C 519.417969 737.539062 526.078125 738.871094 526.078125 740.515625 Z M 526.078125 740.515625 " fill-opacity="1" fill-rule="nonzero"/><path fill="#fffcfc" d="M 492.578125 672.0625 C 492.847656 668.792969 490.425781 665.921875 487.15625 665.644531 C 483.886719 665.371094 481 667.792969 480.722656 671.066406 C 480.582031 672.695312 477.699219 711.125 510.703125 724.90625 C 511.453125 725.21875 512.226562 725.367188 512.992188 725.367188 C 515.320312 725.367188 517.53125 723.992188 518.484375 721.710938 C 519.75 718.679688 518.320312 715.195312 515.289062 713.929688 C 490.363281 703.519531 492.476562 673.351562 492.578125 672.0625 Z M 492.578125 672.0625 " fill-opacity="1" fill-rule="nonzero"/><path fill="#fffcfc" d="M 607.601562 786.230469 L 604.945312 786.6875 C 605.847656 784.429688 606.332031 781.5625 606.332031 781.5625 L 604.460938 782.984375 C 603.996094 780.976562 603.269531 779.109375 603.269531 779.109375 L 601.550781 783.371094 C 601.199219 782.761719 600.714844 782.164062 600.054688 781.617188 C 597.382812 779.421875 589.269531 780.195312 587.988281 778.34375 C 587.101562 779.050781 585.886719 780.847656 585.035156 782.992188 C 584.9375 780.375 585.417969 777.660156 585.417969 777.660156 C 585.417969 777.660156 581.433594 776.09375 575.378906 772.082031 C 573.015625 770.519531 570.558594 764.941406 567.566406 764.402344 C 565.933594 764.105469 561.945312 764.820312 559.089844 765.1875 C 558.160156 763.074219 556.777344 760.828125 554.695312 758.832031 C 543.972656 748.527344 534.460938 756.261719 536.992188 770.84375 C 538.464844 762.371094 539.914062 763.550781 539.914062 763.550781 C 539.914062 763.550781 538.394531 768.945312 542.554688 776.476562 C 542.386719 768.101562 544.914062 764.789062 544.914062 764.789062 C 544.914062 764.789062 542.890625 773.328125 547.671875 783.722656 C 546.488281 773.523438 549.019531 769.675781 549.019531 769.675781 C 549.019531 769.675781 548.800781 774.695312 550.480469 780.347656 C 551.324219 784.132812 553.453125 788.8125 558.632812 791.765625 C 558.960938 792.523438 559.550781 793.148438 560.289062 793.5625 L 558.410156 798.515625 L 556.886719 799.125 C 556.554688 799.257812 556.363281 799.605469 556.433594 799.957031 C 556.5 800.304688 556.804688 800.558594 557.164062 800.558594 L 566.578125 800.558594 C 566.976562 800.558594 567.300781 800.25 567.324219 799.855469 C 567.34375 799.457031 567.050781 799.117188 566.65625 799.074219 L 560.679688 798.457031 L 563.023438 794.03125 C 563.613281 793.929688 564.15625 793.703125 564.625 793.378906 C 566.074219 793.367188 567.816406 793.238281 569.605469 793.003906 L 571.246094 798.699219 L 570.082031 799.113281 C 569.738281 799.234375 569.535156 799.585938 569.597656 799.941406 C 569.65625 800.296875 569.964844 800.558594 570.328125 800.558594 L 579.746094 800.558594 C 580.144531 800.558594 580.472656 800.246094 580.488281 799.847656 C 580.507812 799.453125 580.210938 799.109375 579.8125 799.074219 L 573.296875 798.480469 L 572.179688 792.59375 C 575.503906 791.964844 578.539062 790.972656 579.589844 789.679688 C 580.535156 788.519531 582.28125 788.238281 584.054688 788.191406 C 584.140625 789.707031 584.628906 791.132812 585.746094 792.242188 C 588.542969 792.019531 591.578125 790.804688 593.0625 790.140625 L 591.792969 791.578125 C 591.792969 791.578125 591.273438 792.382812 593.5 792.550781 C 594.769531 792.644531 596.15625 791.847656 597.113281 791.140625 L 597.96875 795.160156 L 600.113281 791.425781 C 600.550781 791.558594 601.007812 791.628906 601.472656 791.578125 C 603.765625 791.324219 607.601562 786.230469 607.601562 786.230469 Z M 598.527344 785.84375 C 599.082031 785.664062 599.675781 785.96875 599.851562 786.523438 C 600.03125 787.078125 599.722656 787.671875 599.167969 787.847656 C 598.617188 788.027344 598.023438 787.722656 597.84375 787.167969 C 597.667969 786.613281 597.972656 786.019531 598.527344 785.84375 Z M 598.527344 785.84375 " fill-opacity="1" fill-rule="nonzero"/><path fill="#fffcfc" d="M 565.140625 699.199219 C 565.140625 699.410156 565.101562 699.613281 565.019531 699.808594 C 564.9375 700.003906 564.824219 700.175781 564.675781 700.324219 C 564.523438 700.472656 564.351562 700.585938 564.15625 700.667969 C 563.960938 700.75 563.757812 700.789062 563.546875 700.789062 C 563.335938 700.789062 563.132812 700.75 562.941406 700.667969 C 562.746094 700.585938 562.574219 700.472656 562.421875 700.324219 C 562.273438 700.175781 562.160156 700.003906 562.078125 699.808594 C 561.996094 699.613281 561.957031 699.410156 561.957031 699.199219 C 561.957031 698.988281 561.996094 698.785156 562.078125 698.589844 C 562.160156 698.394531 562.273438 698.222656 562.421875 698.074219 C 562.574219 697.925781 562.746094 697.808594 562.941406 697.726562 C 563.132812 697.648438 563.335938 697.605469 563.546875 697.605469 C 563.757812 697.605469 563.960938 697.648438 564.15625 697.726562 C 564.351562 697.808594 564.523438 697.925781 564.675781 698.074219 C 564.824219 698.222656 564.9375 698.394531 565.019531 698.589844 C 565.101562 698.785156 565.140625 698.988281 565.140625 699.199219 Z M 565.140625 699.199219 " fill-opacity="1" fill-rule="nonzero"/><path fill="#fffcfc" d="M 574.4375 705.058594 C 574.4375 705.269531 574.398438 705.472656 574.316406 705.667969 C 574.234375 705.863281 574.121094 706.035156 573.972656 706.183594 C 573.820312 706.332031 573.648438 706.449219 573.453125 706.53125 C 573.257812 706.609375 573.054688 706.652344 572.84375 706.652344 C 572.632812 706.652344 572.429688 706.609375 572.234375 706.53125 C 572.042969 706.449219 571.871094 706.332031 571.71875 706.183594 C 571.570312 706.035156 571.457031 705.863281 571.375 705.667969 C 571.292969 705.472656 571.253906 705.269531 571.253906 705.058594 C 571.253906 704.847656 571.292969 704.644531 571.375 704.449219 C 571.457031 704.253906 571.570312 704.082031 571.71875 703.933594 C 571.871094 703.785156 572.042969 703.671875 572.234375 703.589844 C 572.429688 703.507812 572.632812 703.46875 572.84375 703.46875 C 573.054688 703.46875 573.257812 703.507812 573.453125 703.589844 C 573.648438 703.671875 573.820312 703.785156 573.972656 703.933594 C 574.121094 704.082031 574.234375 704.253906 574.316406 704.449219 C 574.398438 704.644531 574.4375 704.847656 574.4375 705.058594 Z M 574.4375 705.058594 " fill-opacity="1" fill-rule="nonzero"/><path fill="#fffcfc" d="M 577.453125 713.347656 C 577.453125 713.558594 577.410156 713.761719 577.332031 713.957031 C 577.25 714.152344 577.136719 714.324219 576.984375 714.472656 C 576.835938 714.621094 576.664062 714.738281 576.46875 714.820312 C 576.273438 714.898438 576.070312 714.941406 575.859375 714.941406 C 575.648438 714.941406 575.445312 714.898438 575.25 714.820312 C 575.054688 714.738281 574.882812 714.621094 574.734375 714.472656 C 574.585938 714.324219 574.472656 714.152344 574.390625 713.957031 C 574.308594 713.761719 574.269531 713.558594 574.269531 713.347656 C 574.269531 713.136719 574.308594 712.933594 574.390625 712.738281 C 574.472656 712.542969 574.585938 712.371094 574.734375 712.222656 C 574.882812 712.074219 575.054688 711.960938 575.25 711.878906 C 575.445312 711.796875 575.648438 711.757812 575.859375 711.757812 C 576.070312 711.757812 576.273438 711.796875 576.46875 711.878906 C 576.664062 711.960938 576.835938 712.074219 576.984375 712.222656 C 577.136719 712.371094 577.25 712.542969 577.332031 712.738281 C 577.410156 712.933594 577.453125 713.136719 577.453125 713.347656 Z M 577.453125 713.347656 " fill-opacity="1" fill-rule="nonzero"/><path fill="#fffcfc" d="M 609.226562 801.390625 C 609.226562 801.601562 609.1875 801.804688 609.105469 802 C 609.023438 802.195312 608.910156 802.367188 608.761719 802.515625 C 608.609375 802.664062 608.4375 802.78125 608.242188 802.859375 C 608.050781 802.941406 607.847656 802.980469 607.636719 802.980469 C 607.425781 802.980469 607.222656 802.941406 607.027344 802.859375 C 606.832031 802.78125 606.660156 802.664062 606.507812 802.515625 C 606.359375 802.367188 606.246094 802.195312 606.164062 802 C 606.082031 801.804688 606.042969 801.601562 606.042969 801.390625 C 606.042969 801.179688 606.082031 800.976562 606.164062 800.78125 C 606.246094 800.585938 606.359375 800.414062 606.507812 800.265625 C 606.660156 800.117188 606.832031 800 607.027344 799.921875 C 607.222656 799.839844 607.425781 799.800781 607.636719 799.800781 C 607.847656 799.800781 608.050781 799.839844 608.242188 799.921875 C 608.4375 800 608.609375 800.117188 608.761719 800.265625 C 608.910156 800.414062 609.023438 800.585938 609.105469 800.78125 C 609.1875 800.976562 609.226562 801.179688 609.226562 801.390625 Z M 609.226562 801.390625 " fill-opacity="1" fill-rule="nonzero"/><path fill="#fffcfc" d="M 565.183594 711.214844 C 565.183594 711.425781 565.140625 711.628906 565.0625 711.824219 C 564.980469 712.019531 564.863281 712.191406 564.714844 712.339844 C 564.566406 712.488281 564.394531 712.601562 564.199219 712.683594 C 564.003906 712.765625 563.800781 712.804688 563.589844 712.804688 C 563.378906 712.804688 563.175781 712.765625 562.980469 712.683594 C 562.785156 712.601562 562.613281 712.488281 562.464844 712.339844 C 562.316406 712.191406 562.199219 712.019531 562.121094 711.824219 C 562.039062 711.628906 562 711.425781 562 711.214844 C 562 711.003906 562.039062 710.800781 562.121094 710.605469 C 562.199219 710.410156 562.316406 710.238281 562.464844 710.089844 C 562.613281 709.941406 562.785156 709.824219 562.980469 709.742188 C 563.175781 709.664062 563.378906 709.621094 563.589844 709.621094 C 563.800781 709.621094 564.003906 709.664062 564.199219 709.742188 C 564.394531 709.824219 564.566406 709.941406 564.714844 710.089844 C 564.863281 710.238281 564.980469 710.410156 565.0625 710.605469 C 565.140625 710.800781 565.183594 711.003906 565.183594 711.214844 Z M 565.183594 711.214844 " fill-opacity="1" fill-rule="nonzero"/><path fill="#fffcfc" d="M 563.300781 729.082031 C 563.300781 729.292969 563.261719 729.496094 563.179688 729.691406 C 563.097656 729.886719 562.984375 730.058594 562.835938 730.207031 C 562.6875 730.355469 562.511719 730.472656 562.320312 730.554688 C 562.125 730.632812 561.921875 730.675781 561.710938 730.675781 C 561.5 730.675781 561.296875 730.632812 561.101562 730.554688 C 560.90625 730.472656 560.734375 730.355469 560.585938 730.207031 C 560.433594 730.058594 560.320312 729.886719 560.238281 729.691406 C 560.160156 729.496094 560.117188 729.292969 560.117188 729.082031 C 560.117188 728.871094 560.160156 728.667969 560.238281 728.472656 C 560.320312 728.277344 560.433594 728.105469 560.585938 727.957031 C 560.734375 727.808594 560.90625 727.695312 561.101562 727.613281 C 561.296875 727.53125 561.5 727.492188 561.710938 727.492188 C 561.921875 727.492188 562.125 727.53125 562.320312 727.613281 C 562.511719 727.695312 562.6875 727.808594 562.835938 727.957031 C 562.984375 728.105469 563.097656 728.277344 563.179688 728.472656 C 563.261719 728.667969 563.300781 728.871094 563.300781 729.082031 Z M 563.300781 729.082031 " fill-opacity="1" fill-rule="nonzero"/><path fill="#fffcfc" d="M 570.488281 717.578125 C 570.488281 717.789062 570.449219 717.992188 570.367188 718.1875 C 570.289062 718.382812 570.171875 718.554688 570.023438 718.703125 C 569.875 718.851562 569.703125 718.96875 569.507812 719.046875 C 569.3125 719.128906 569.109375 719.167969 568.898438 719.167969 C 568.6875 719.167969 568.484375 719.128906 568.289062 719.046875 C 568.09375 718.96875 567.921875 718.851562 567.773438 718.703125 C 567.625 718.554688 567.507812 718.382812 567.429688 718.1875 C 567.347656 717.992188 567.308594 717.789062 567.308594 717.578125 C 567.308594 717.367188 567.347656 717.164062 567.429688 716.96875 C 567.507812 716.773438 567.625 716.601562 567.773438 716.453125 C 567.921875 716.304688 568.09375 716.1875 568.289062 716.109375 C 568.484375 716.027344 568.6875 715.988281 568.898438 715.988281 C 569.109375 715.988281 569.3125 716.027344 569.507812 716.109375 C 569.703125 716.1875 569.875 716.304688 570.023438 716.453125 C 570.171875 716.601562 570.289062 716.773438 570.367188 716.96875 C 570.449219 717.164062 570.488281 717.367188 570.488281 717.578125 Z M 570.488281 717.578125 " fill-opacity="1" fill-rule="nonzero"/><path fill="#fffcfc" d="M 587.597656 718.570312 C 587.597656 718.78125 587.554688 718.984375 587.476562 719.179688 C 587.394531 719.375 587.277344 719.546875 587.128906 719.695312 C 586.980469 719.84375 586.808594 719.960938 586.613281 720.039062 C 586.417969 720.121094 586.214844 720.160156 586.003906 720.160156 C 585.792969 720.160156 585.589844 720.121094 585.394531 720.039062 C 585.199219 719.960938 585.027344 719.84375 584.878906 719.695312 C 584.730469 719.546875 584.613281 719.375 584.535156 719.179688 C 584.453125 718.984375 584.414062 718.78125 584.414062 718.570312 C 584.414062 718.359375 584.453125 718.15625 584.535156 717.960938 C 584.613281 717.765625 584.730469 717.59375 584.878906 717.445312 C 585.027344 717.296875 585.199219 717.179688 585.394531 717.101562 C 585.589844 717.019531 585.792969 716.980469 586.003906 716.980469 C 586.214844 716.980469 586.417969 717.019531 586.613281 717.101562 C 586.808594 717.179688 586.980469 717.296875 587.128906 717.445312 C 587.277344 717.59375 587.394531 717.765625 587.476562 717.960938 C 587.554688 718.15625 587.597656 718.359375 587.597656 718.570312 Z M 587.597656 718.570312 " fill-opacity="1" fill-rule="nonzero"/><path fill="#fffcfc" d="M 594.890625 800.957031 C 594.890625 801.167969 594.847656 801.371094 594.769531 801.566406 C 594.6875 801.761719 594.574219 801.933594 594.421875 802.082031 C 594.273438 802.230469 594.101562 802.347656 593.90625 802.425781 C 593.710938 802.507812 593.507812 802.546875 593.296875 802.546875 C 593.085938 802.546875 592.882812 802.507812 592.6875 802.425781 C 592.492188 802.347656 592.320312 802.230469 592.171875 802.082031 C 592.023438 801.933594 591.910156 801.761719 591.828125 801.566406 C 591.746094 801.371094 591.707031 801.167969 591.707031 800.957031 C 591.707031 800.746094 591.746094 800.542969 591.828125 800.347656 C 591.910156 800.152344 592.023438 799.980469 592.171875 799.832031 C 592.320312 799.683594 592.492188 799.566406 592.6875 799.488281 C 592.882812 799.40625 593.085938 799.367188 593.296875 799.367188 C 593.507812 799.367188 593.710938 799.40625 593.90625 799.488281 C 594.101562 799.566406 594.273438 799.683594 594.421875 799.832031 C 594.574219 799.980469 594.6875 800.152344 594.769531 800.347656 C 594.847656 800.542969 594.890625 800.746094 594.890625 800.957031 Z M 594.890625 800.957031 " fill-opacity="1" fill-rule="nonzero"/><g clip-path="url(#6a7b349d00)"><path fill="#fffcfc" d="M 604.207031 808.144531 C 604.207031 808.355469 604.164062 808.558594 604.085938 808.753906 C 604.003906 808.949219 603.890625 809.121094 603.738281 809.269531 C 603.589844 809.417969 603.417969 809.535156 603.222656 809.613281 C 603.027344 809.695312 602.824219 809.734375 602.613281 809.734375 C 602.402344 809.734375 602.199219 809.695312 602.003906 809.613281 C 601.8125 809.535156 601.636719 809.417969 601.488281 809.269531 C 601.339844 809.121094 601.226562 808.949219 601.144531 808.753906 C 601.0625 808.558594 601.023438 808.355469 601.023438 808.144531 C 601.023438 807.933594 601.0625 807.730469 601.144531 807.535156 C 601.226562 807.339844 601.339844 807.167969 601.488281 807.019531 C 601.636719 806.871094 601.8125 806.753906 602.003906 806.675781 C 602.199219 806.59375 602.402344 806.554688 602.613281 806.554688 C 602.824219 806.554688 603.027344 806.59375 603.222656 806.675781 C 603.417969 806.753906 603.589844 806.871094 603.738281 807.019531 C 603.890625 807.167969 604.003906 807.339844 604.085938 807.535156 C 604.164062 807.730469 604.207031 807.933594 604.207031 808.144531 Z M 604.207031 808.144531 " fill-opacity="1" fill-rule="nonzero"/></g><path fill="#fffcfc" d="M 627.011719 800.851562 C 627.011719 801.0625 626.972656 801.265625 626.890625 801.460938 C 626.8125 801.65625 626.695312 801.828125 626.546875 801.976562 C 626.398438 802.128906 626.226562 802.242188 626.03125 802.324219 C 625.835938 802.402344 625.632812 802.445312 625.421875 802.445312 C 625.210938 802.445312 625.007812 802.402344 624.8125 802.324219 C 624.617188 802.242188 624.445312 802.128906 624.296875 801.976562 C 624.148438 801.828125 624.03125 801.65625 623.953125 801.460938 C 623.871094 801.265625 623.832031 801.0625 623.832031 800.851562 C 623.832031 800.640625 623.871094 800.4375 623.953125 800.242188 C 624.03125 800.050781 624.148438 799.878906 624.296875 799.726562 C 624.445312 799.578125 624.617188 799.464844 624.8125 799.382812 C 625.007812 799.300781 625.210938 799.261719 625.421875 799.261719 C 625.632812 799.261719 625.835938 799.300781 626.03125 799.382812 C 626.226562 799.464844 626.398438 799.578125 626.546875 799.726562 C 626.695312 799.878906 626.8125 800.050781 626.890625 800.242188 C 626.972656 800.4375 627.011719 800.640625 627.011719 800.851562 Z M 627.011719 800.851562 " fill-opacity="1" fill-rule="nonzero"/><path fill="#fffcfc" d="M 619.183594 804.425781 C 619.183594 804.636719 619.144531 804.839844 619.0625 805.035156 C 618.980469 805.230469 618.867188 805.402344 618.71875 805.550781 C 618.570312 805.703125 618.398438 805.816406 618.203125 805.898438 C 618.007812 805.976562 617.804688 806.019531 617.59375 806.019531 C 617.382812 806.019531 617.179688 805.976562 616.984375 805.898438 C 616.789062 805.816406 616.617188 805.703125 616.46875 805.550781 C 616.316406 805.402344 616.203125 805.230469 616.121094 805.035156 C 616.042969 804.839844 616 804.636719 616 804.425781 C 616 804.214844 616.042969 804.011719 616.121094 803.816406 C 616.203125 803.625 616.316406 803.449219 616.46875 803.300781 C 616.617188 803.152344 616.789062 803.039062 616.984375 802.957031 C 617.179688 802.875 617.382812 802.835938 617.59375 802.835938 C 617.804688 802.835938 618.007812 802.875 618.203125 802.957031 C 618.398438 803.039062 618.570312 803.152344 618.71875 803.300781 C 618.867188 803.449219 618.980469 803.625 619.0625 803.816406 C 619.144531 804.011719 619.183594 804.214844 619.183594 804.425781 Z M 619.183594 804.425781 " fill-opacity="1" fill-rule="nonzero"/><path fill="#fffcfc" d="M 634.511719 804.363281 C 634.511719 804.574219 634.472656 804.777344 634.390625 804.972656 C 634.3125 805.167969 634.195312 805.339844 634.046875 805.488281 C 633.898438 805.640625 633.726562 805.753906 633.53125 805.835938 C 633.335938 805.914062 633.132812 805.957031 632.921875 805.957031 C 632.710938 805.957031 632.507812 805.914062 632.3125 805.835938 C 632.117188 805.753906 631.945312 805.640625 631.796875 805.488281 C 631.648438 805.339844 631.53125 805.167969 631.453125 804.972656 C 631.371094 804.777344 631.332031 804.574219 631.332031 804.363281 C 631.332031 804.152344 631.371094 803.949219 631.453125 803.753906 C 631.53125 803.5625 631.648438 803.386719 631.796875 803.238281 C 631.945312 803.089844 632.117188 802.976562 632.3125 802.894531 C 632.507812 802.8125 632.710938 802.773438 632.921875 802.773438 C 633.132812 802.773438 633.335938 802.8125 633.53125 802.894531 C 633.726562 802.976562 633.898438 803.089844 634.046875 803.238281 C 634.195312 803.386719 634.3125 803.5625 634.390625 803.753906 C 634.472656 803.949219 634.511719 804.152344 634.511719 804.363281 Z M 634.511719 804.363281 " fill-opacity="1" fill-rule="nonzero"/><path fill="#fffcfc" d="M 586.914062 806.59375 C 586.914062 806.804688 586.875 807.007812 586.792969 807.203125 C 586.710938 807.398438 586.597656 807.570312 586.449219 807.71875 C 586.300781 807.871094 586.128906 807.984375 585.933594 808.066406 C 585.738281 808.144531 585.535156 808.1875 585.324219 808.1875 C 585.113281 808.1875 584.910156 808.144531 584.714844 808.066406 C 584.519531 807.984375 584.347656 807.871094 584.199219 807.71875 C 584.046875 807.570312 583.933594 807.398438 583.851562 807.203125 C 583.773438 807.007812 583.730469 806.804688 583.730469 806.59375 C 583.730469 806.382812 583.773438 806.179688 583.851562 805.984375 C 583.933594 805.792969 584.046875 805.621094 584.199219 805.46875 C 584.347656 805.320312 584.519531 805.207031 584.714844 805.125 C 584.910156 805.042969 585.113281 805.003906 585.324219 805.003906 C 585.535156 805.003906 585.738281 805.042969 585.933594 805.125 C 586.128906 805.207031 586.300781 805.320312 586.449219 805.46875 C 586.597656 805.621094 586.710938 805.792969 586.792969 805.984375 C 586.875 806.179688 586.914062 806.382812 586.914062 806.59375 Z M 586.914062 806.59375 " fill-opacity="1" fill-rule="nonzero"/></svg>