<svg xmlns="http://www.w3.org/2000/svg" xmlns:xlink="http://www.w3.org/1999/xlink" width="1080" zoomAndPan="magnify" viewBox="0 0 810 809.999993" height="1080" preserveAspectRatio="xMidYMid meet" version="1.0"><path fill="#4d4d4d" d="M 720.753906 92.671875 C 724.300781 86.648438 728.648438 75.613281 723.632812 63.96875 C 721.21875 58.21875 679.597656 0.0195312 661.722656 10.523438 C 655.164062 14.398438 656.707031 28.652344 659.179688 32.933594 C 661.59375 37.214844 662.53125 38.414062 662.53125 38.414062 C 662.53125 38.414062 635.421875 12.195312 626.1875 9.382812 C 617.019531 6.503906 605.378906 9.652344 611.929688 21.824219 C 618.496094 34 622.238281 38.820312 622.238281 38.820312 C 622.238281 38.820312 595.875 25.300781 579.746094 25.976562 C 563.683594 26.710938 561.808594 37.074219 567.429688 43.835938 C 573.050781 50.523438 583.089844 59.15625 583.089844 59.15625 C 583.089844 59.15625 549.960938 49.121094 543.070312 59.6875 C 538.050781 67.386719 564.417969 79.960938 578.875 85.980469 C 500.371094 148.199219 544.074219 285.007812 412.765625 304.671875 C 286.882812 323.539062 227.519531 201.914062 219.425781 91.464844 L 219.761719 90.527344 C 219.761719 90.527344 220.960938 64.238281 207.175781 62.769531 C 193.324219 61.359375 148.617188 108.527344 148.347656 162.242188 C 148.152344 216.035156 182.480469 228.539062 182.480469 228.539062 C 182.480469 228.539062 167.496094 173.617188 177.53125 133.945312 C 187.703125 94.28125 207.3125 80.5625 207.3125 80.5625 C 212.199219 209.472656 269.019531 346.078125 416.917969 323.875 C 503.585938 310.890625 519.3125 259.648438 543.941406 188.671875 C 558.796875 145.792969 568.902344 116.6875 596.941406 97.558594 C 612.9375 86.582031 631.742188 82.097656 649.078125 81.296875 C 673.371094 80.230469 693.71875 85.710938 699.070312 90.9375 C 702.550781 94.34375 705.757812 106.585938 708.035156 120.097656 C 710.980469 137.628906 712.054688 155.824219 710.179688 160.839844 C 709.640625 162.242188 695.855469 173.886719 693.71875 177.097656 C 686.816406 187 681.9375 197.566406 682.605469 217.105469 C 682.402344 219.242188 682.671875 222.257812 683.277344 226.066406 C 684.140625 234.230469 685.886719 243.730469 688.628906 255.03125 L 689.363281 254.902344 C 692.976562 271.226562 697.398438 291.828125 700.675781 315.644531 C 713.722656 408.96875 719.75 476.871094 669.15625 545.910156 C 705.628906 459.609375 698.066406 335.445312 667.75 305.609375 C 663.394531 309.890625 677.71875 318.191406 673.835938 393.515625 C 671.765625 435.730469 659.046875 473.390625 648.207031 498.480469 C 639.707031 518.28125 632.347656 530.121094 632.347656 530.121094 C 644.191406 507.378906 673.101562 404.148438 644.460938 361.867188 C 641.777344 439.472656 615.011719 489.046875 600.289062 510.320312 C 597.816406 506.503906 595.066406 503.097656 591.851562 500.285156 C 598.882812 487.238281 603.835938 473.722656 606.175781 460.414062 C 610.996094 432.582031 592.996094 421.144531 589.714844 421.144531 C 586.703125 421.144531 582.085938 427.300781 577.667969 438.136719 C 563.28125 473.863281 560.46875 494.597656 530.554688 525.570312 C 460.554688 591.332031 384.929688 562.503906 359.960938 547.71875 C 367.195312 548.054688 374.816406 547.980469 382.851562 547.3125 C 453.855469 541.5625 459.078125 517.613281 455.203125 515.605469 C 451.382812 513.597656 363.648438 531.996094 321.75 521.421875 C 299.730469 515.875 286.417969 507.042969 278.71875 499.882812 C 291.769531 503.894531 307.230469 506.039062 325.167969 506.171875 C 350.390625 506.300781 378.101562 501.023438 397.042969 492.992188 C 418.253906 483.964844 429.097656 471.988281 428.960938 470.117188 C 428.695312 466.703125 419.324219 467.035156 411.761719 469.84375 C 404.332031 472.722656 313.722656 493.859375 276.710938 482.691406 C 253.355469 475.730469 247.328125 467.035156 245.996094 461.550781 C 254.488281 464.160156 264.195312 466.367188 275.039062 467.910156 C 329.3125 475.332031 387.539062 432.648438 391.421875 427.300781 C 395.300781 421.878906 393.226562 416.460938 393.226562 416.460938 C 393.226562 416.460938 330.917969 441.613281 287.488281 445.230469 C 267.746094 446.96875 252.6875 444.957031 241.976562 442.417969 C 243.714844 442.351562 245.457031 442.351562 247.328125 442.285156 C 270.152344 441.347656 299.9375 435.59375 332.191406 422.683594 C 402.796875 394.453125 439.605469 357.054688 498.03125 357.855469 C 556.316406 358.660156 528.074219 354.445312 528.074219 354.445312 C 528.074219 354.445312 468.117188 325.277344 417.921875 343.003906 C 367.660156 360.734375 290.230469 419.203125 225.511719 425.5625 C 200.085938 428.035156 190.378906 426.964844 188.910156 429.101562 C 187.433594 431.179688 194.058594 434.523438 198.609375 436.464844 C 202.761719 440.207031 213.066406 448.371094 230.128906 455.726562 C 235.285156 471.988281 245.996094 484.691406 262.394531 493.261719 C 263.527344 497.542969 265.265625 502.492188 267.875 506.707031 C 269.214844 508.78125 272.027344 512.125 276.3125 516.070312 C 272.027344 512.457031 267.609375 509.113281 263.257812 506.105469 C 244.519531 493.328125 225.113281 486.769531 210.390625 492.121094 C 207.980469 492.925781 205.835938 493.996094 203.699219 495.332031 C 192.921875 502.761719 187.367188 516.070312 185.761719 532.0625 C 185.5625 534.003906 185.425781 536.148438 185.359375 538.21875 C 181.207031 538.480469 176.058594 538.75 170.703125 538.75 C 157.851562 538.75 105.519531 530.722656 89.125 505.304688 C 78.011719 488.042969 78.683594 475.132812 80.222656 468.578125 C 104.582031 486.371094 138.984375 494.535156 137.375 491.523438 C 111.140625 455.394531 69.714844 459.476562 57.871094 364.746094 C 56.332031 354.714844 36.386719 331.832031 36.386719 331.832031 C 19.726562 359.128906 38.53125 414.992188 59.273438 446.160156 C 55.261719 456.535156 47.625 491.386719 75.539062 528.847656 C 62.890625 524.96875 51.042969 520.351562 46.15625 515.605469 C 45.152344 514.667969 44.085938 514.066406 42.878906 513.863281 C 49.304688 548.917969 69.316406 605.585938 69.316406 605.585938 C 51.042969 595.816406 30.699219 564.84375 19.324219 534.605469 C 9.820312 551.191406 2.585938 575.414062 7.410156 596.6875 C 54.59375 805.210938 807.820312 810.09375 759.234375 547.847656 C 747.453125 573.472656 730.320312 597.21875 714.863281 605.585938 C 714.863281 605.585938 728.714844 566.117188 737.082031 532.664062 C 733.804688 534.46875 730.320312 536.613281 727.042969 538.816406 C 749.058594 476.667969 740.160156 388.964844 728.582031 328.691406 C 722.492188 296.375 712.722656 265.339844 708.433594 238.78125 C 715.261719 242.1875 723.226562 243.265625 725.835938 242.726562 C 730.386719 241.722656 746.921875 242.988281 749.328125 226.269531 C 751.671875 209.546875 740.894531 199.441406 736.945312 180.644531 C 733.0625 161.980469 767.0625 157.03125 775.027344 154.953125 C 783.0625 153.011719 790.6875 153.6875 790.6875 153.6875 C 790.6875 153.6875 784.667969 137.695312 764.054688 118.824219 C 747.453125 103.640625 727.847656 95.480469 720.816406 92.933594 Z M 581.550781 170.40625 C 581.550781 170.40625 563.414062 208.671875 568.832031 219.84375 C 574.253906 231.082031 581.679688 218.90625 583.359375 211.484375 C 584.964844 204.125 588.710938 173.886719 586.566406 171.34375 C 584.429688 168.871094 581.550781 170.40625 581.550781 170.40625 Z M 615.617188 182.71875 C 615.617188 182.71875 606.113281 224.394531 613.738281 234.425781 C 621.300781 244.464844 625.984375 230.75 625.984375 223.125 C 625.984375 215.425781 623.242188 184.59375 620.699219 182.585938 C 618.089844 180.574219 615.617188 182.71875 615.617188 182.71875 Z M 633.210938 259.785156 C 633.210938 259.785156 630.804688 302.933594 639.84375 311.699219 C 648.808594 320.53125 651.152344 306.082031 649.878906 298.449219 C 648.605469 290.757812 640.914062 260.453125 638.097656 258.914062 C 635.226562 257.242188 633.210938 259.785156 633.210938 259.785156 Z M 595.066406 251.289062 C 595.066406 251.289062 585.496094 292.96875 593.058594 303 C 600.6875 313.035156 605.3125 299.320312 605.3125 291.695312 C 605.3125 284 602.5625 253.164062 600.019531 251.15625 C 597.414062 249.144531 595.066406 251.289062 595.066406 251.289062 Z M 556.382812 246.871094 C 556.382812 246.871094 536.574219 284.136719 541.527344 295.578125 C 546.480469 307.019531 554.515625 295.105469 556.382812 287.8125 C 558.324219 280.589844 563.347656 250.546875 561.339844 248.011719 C 559.261719 245.402344 556.382812 246.871094 556.382812 246.871094 Z M 687.691406 130.738281 C 687.761719 131.34375 687.828125 131.9375 687.894531 132.476562 C 688.5625 141.640625 681.601562 149.136719 672.433594 149.136719 C 663.265625 149.136719 655.300781 141.640625 654.632812 132.476562 C 654.632812 132.34375 654.632812 132.140625 654.632812 132.003906 L 654.09375 132.207031 C 654.09375 132.207031 644.324219 137.828125 636.964844 136.554688 C 629.605469 135.21875 630.40625 128.796875 630.40625 128.796875 C 630.40625 128.796875 640.179688 129.265625 644.730469 125.382812 C 646.597656 123.847656 649.945312 120.703125 652.359375 117.421875 C 660.523438 106.054688 675.910156 99.5625 684.613281 112.808594 C 689.296875 119.828125 689.632812 123.578125 693.046875 126.125 C 696.394531 128.734375 690.503906 130.070312 687.691406 130.738281 Z M 725.101562 107.859375 C 725.90625 111.265625 726.640625 114.75 727.246094 118.230469 C 728.183594 123.980469 728.917969 129.933594 729.457031 135.6875 C 732.933594 135.421875 738.152344 135.152344 745.113281 135.550781 C 758.433594 136.292969 767.265625 138.09375 767.265625 138.09375 C 767.265625 138.09375 745.316406 117.824219 731.660156 111.136719 C 729.050781 109.863281 726.976562 108.730469 725.101562 107.859375 Z M 105.457031 430.175781 C 108.328125 432.183594 118.433594 440.679688 126.667969 445.027344 C 148.347656 456.597656 177.0625 467.640625 177.128906 467.707031 C 178.402344 469.710938 173.050781 485.433594 154.710938 480.011719 C 144.269531 476.9375 109.738281 457.535156 105.457031 430.175781 Z M 102.640625 305.8125 C 122.449219 337.386719 149.554688 367.894531 176.125 394.25 C 128.8125 390.972656 86.578125 323.671875 102.640625 305.8125 Z M 85.640625 235.632812 L 61.28125 201.246094 C 61.28125 201.246094 15.972656 236.367188 44.753906 316.984375 C 73.597656 397.527344 128.40625 404.148438 136.105469 405.289062 C 143.933594 406.425781 148.886719 400.472656 146.007812 399.335938 C 88.652344 375.851562 51.710938 284.738281 68.84375 240.117188 L 94.746094 265.738281 C 101.367188 278.378906 110.605469 285.539062 118.703125 289.558594 C 128.476562 294.304688 136.578125 294.574219 136.578125 294.574219 C 136.578125 294.574219 120.578125 260.1875 116.363281 216.769531 C 106.925781 159.902344 132.492188 118.824219 132.492188 118.824219 C 122.71875 107.921875 104.984375 137.695312 96.285156 157.429688 C 85.242188 182.515625 81.894531 210.546875 85.640625 235.632812 Z M 202.425781 179.105469 C 206.773438 214.5625 218.351562 251.15625 231.273438 283.671875 C 208.984375 274.636719 196.203125 245.671875 192.652344 222.519531 C 190.246094 206.796875 191.714844 190.472656 193.65625 185.929688 C 197.074219 178.566406 202.425781 179.105469 202.425781 179.105469 Z M 305.351562 586.054688 C 302.878906 579.023438 298.933594 571.53125 293.84375 564.109375 C 283 548.117188 267.609375 532.601562 252.351562 522.160156 C 238.433594 512.597656 225.179688 507.378906 216.882812 510.386719 C 216.074219 510.65625 215.339844 510.988281 214.605469 511.457031 C 209.050781 515.269531 206.039062 523.5 205.101562 533.800781 C 203.765625 547.585938 206.105469 564.304688 210.859375 579.960938 C 222.902344 619.5625 243.453125 638.367188 262.859375 642.851562 C 269.6875 644.382812 276.375 644.179688 282.527344 642.445312 C 288.492188 640.773438 293.980469 637.492188 298.261719 633.148438 C 308.234375 622.914062 312.515625 606.121094 305.351562 586.054688 Z M 443.757812 592.742188 C 443.683594 592.40625 443.617188 592.007812 443.617188 591.601562 C 408.6875 588.992188 381.847656 585.582031 352.472656 563.171875 C 352.332031 564.507812 352.269531 565.78125 352.203125 567.054688 C 349.992188 608.054688 363.777344 632.878906 381.511719 643.847656 C 387.941406 647.800781 394.835938 650.003906 401.65625 650.476562 C 408.484375 650.941406 415.179688 649.734375 421.199219 646.992188 C 442.417969 637.289062 447.101562 613.8125 443.757812 592.742188 Z M 500.640625 589.324219 C 500.976562 587.050781 501.507812 584.644531 502.109375 582.304688 C 534.367188 569.058594 563.75 543.632812 583.359375 514.464844 C 587.4375 519.082031 590.585938 525.503906 592.929688 533.066406 C 597.144531 546.847656 598.28125 563.839844 596.804688 579.898438 C 587.242188 683.183594 491.472656 653.6875 500.640625 589.324219 Z M 139.785156 214.5625 C 149.6875 250.015625 166.890625 286.542969 184.824219 319.121094 C 161.199219 310.09375 143.863281 281.125 136.773438 257.910156 C 131.886719 242.253906 130.753906 225.9375 132.15625 221.453125 C 134.292969 213.957031 139.785156 214.5625 139.785156 214.5625 " fill-opacity="1" fill-rule="evenodd"/></svg>