<svg xmlns="http://www.w3.org/2000/svg" xmlns:xlink="http://www.w3.org/1999/xlink" width="1080" zoomAndPan="magnify" viewBox="0 0 810 809.999993" height="1080" preserveAspectRatio="xMidYMid meet" version="1.0"><path fill="#f4bc33" d="M 680.769531 405.023438 C 680.769531 409.535156 680.660156 414.042969 680.4375 418.550781 C 680.21875 423.058594 679.886719 427.558594 679.441406 432.050781 C 679 436.539062 678.449219 441.019531 677.785156 445.480469 C 677.125 449.945312 676.351562 454.390625 675.472656 458.816406 C 674.59375 463.242188 673.601562 467.644531 672.507812 472.023438 C 671.410156 476.398438 670.207031 480.75 668.898438 485.066406 C 667.585938 489.386719 666.171875 493.667969 664.652344 497.917969 C 663.132812 502.167969 661.507812 506.375 659.78125 510.546875 C 658.054688 514.714844 656.226562 518.839844 654.296875 522.917969 C 652.367188 527 650.339844 531.027344 648.210938 535.007812 C 646.082031 538.988281 643.859375 542.914062 641.539062 546.785156 C 639.21875 550.65625 636.804688 554.464844 634.300781 558.21875 C 631.792969 561.972656 629.195312 565.660156 626.503906 569.285156 C 623.816406 572.910156 621.042969 576.464844 618.179688 579.953125 C 615.316406 583.441406 612.371094 586.859375 609.339844 590.203125 C 606.308594 593.546875 603.195312 596.8125 600.007812 600.003906 C 596.816406 603.195312 593.546875 606.304688 590.203125 609.335938 C 586.859375 612.367188 583.445312 615.3125 579.957031 618.175781 C 576.46875 621.039062 572.910156 623.816406 569.285156 626.503906 C 565.660156 629.191406 561.972656 631.789062 558.21875 634.296875 C 554.46875 636.804688 550.65625 639.21875 546.785156 641.539062 C 542.914062 643.859375 538.988281 646.082031 535.007812 648.210938 C 531.03125 650.335938 527 652.363281 522.921875 654.292969 C 518.839844 656.222656 514.714844 658.050781 510.546875 659.777344 C 506.378906 661.507812 502.167969 663.128906 497.917969 664.648438 C 493.671875 666.171875 489.386719 667.585938 485.070312 668.894531 C 480.75 670.207031 476.402344 671.410156 472.023438 672.503906 C 467.648438 673.601562 463.246094 674.589844 458.820312 675.46875 C 454.394531 676.351562 449.949219 677.121094 445.484375 677.785156 C 441.019531 678.445312 436.542969 679 432.050781 679.441406 C 427.558594 679.882812 423.0625 680.214844 418.554688 680.4375 C 414.046875 680.660156 409.535156 680.769531 405.023438 680.769531 C 400.511719 680.769531 396 680.660156 391.492188 680.4375 C 386.984375 680.214844 382.484375 679.882812 377.996094 679.441406 C 373.503906 679 369.027344 678.445312 364.5625 677.785156 C 360.097656 677.121094 355.652344 676.351562 351.226562 675.46875 C 346.800781 674.589844 342.398438 673.601562 338.023438 672.503906 C 333.644531 671.410156 329.296875 670.207031 324.976562 668.894531 C 320.660156 667.585938 316.375 666.171875 312.125 664.648438 C 307.878906 663.128906 303.667969 661.507812 299.5 659.777344 C 295.328125 658.050781 291.207031 656.222656 287.125 654.292969 C 283.046875 652.363281 279.015625 650.335938 275.035156 648.207031 C 271.058594 646.082031 267.132812 643.859375 263.261719 641.539062 C 259.390625 639.21875 255.578125 636.804688 251.824219 634.296875 C 248.074219 631.789062 244.386719 629.191406 240.761719 626.503906 C 237.136719 623.816406 233.578125 621.039062 230.089844 618.175781 C 226.601562 615.3125 223.1875 612.367188 219.84375 609.335938 C 216.5 606.304688 213.230469 603.195312 210.039062 600.003906 C 206.847656 596.8125 203.738281 593.546875 200.707031 590.203125 C 197.675781 586.859375 194.730469 583.441406 191.867188 579.953125 C 189.003906 576.464844 186.230469 572.910156 183.539062 569.285156 C 180.851562 565.660156 178.253906 561.972656 175.746094 558.21875 C 173.242188 554.464844 170.828125 550.65625 168.507812 546.785156 C 166.1875 542.914062 163.960938 538.988281 161.835938 535.007812 C 159.707031 531.027344 157.679688 527 155.75 522.917969 C 153.820312 518.839844 151.992188 514.714844 150.265625 510.546875 C 148.539062 506.375 146.914062 502.167969 145.394531 497.917969 C 143.875 493.667969 142.460938 489.386719 141.148438 485.066406 C 139.839844 480.75 138.636719 476.398438 137.539062 472.023438 C 136.441406 467.644531 135.453125 463.242188 134.574219 458.816406 C 133.695312 454.390625 132.921875 449.945312 132.261719 445.480469 C 131.597656 441.019531 131.046875 436.539062 130.601562 432.050781 C 130.160156 427.558594 129.828125 423.058594 129.609375 418.550781 C 129.386719 414.042969 129.277344 409.535156 129.277344 405.023438 C 129.277344 400.507812 129.386719 396 129.609375 391.492188 C 129.828125 386.984375 130.160156 382.484375 130.601562 377.992188 C 131.046875 373.503906 131.597656 369.023438 132.261719 364.5625 C 132.921875 360.097656 133.695312 355.652344 134.574219 351.226562 C 135.453125 346.800781 136.441406 342.398438 137.539062 338.019531 C 138.636719 333.644531 139.839844 329.292969 141.148438 324.976562 C 142.460938 320.65625 143.875 316.375 145.394531 312.125 C 146.914062 307.875 148.539062 303.667969 150.265625 299.496094 C 151.992188 295.328125 153.820312 291.203125 155.75 287.125 C 157.679688 283.042969 159.707031 279.015625 161.835938 275.035156 C 163.960938 271.054688 166.1875 267.128906 168.507812 263.257812 C 170.828125 259.386719 173.238281 255.578125 175.746094 251.824219 C 178.253906 248.070312 180.851562 244.382812 183.539062 240.757812 C 186.230469 237.132812 189.003906 233.578125 191.867188 230.089844 C 194.730469 226.601562 197.675781 223.183594 200.707031 219.839844 C 203.738281 216.496094 206.847656 213.230469 210.039062 210.039062 C 213.230469 206.847656 216.5 203.738281 219.84375 200.707031 C 223.1875 197.675781 226.601562 194.730469 230.089844 191.867188 C 233.578125 189.003906 237.136719 186.226562 240.761719 183.539062 C 244.386719 180.851562 248.074219 178.253906 251.824219 175.746094 C 255.578125 173.238281 259.390625 170.824219 263.261719 168.503906 C 267.132812 166.183594 271.058594 163.960938 275.035156 161.832031 C 279.015625 159.707031 283.046875 157.679688 287.125 155.75 C 291.207031 153.820312 295.328125 151.992188 299.5 150.265625 C 303.667969 148.535156 307.878906 146.914062 312.125 145.394531 C 316.375 143.871094 320.660156 142.457031 324.976562 141.148438 C 329.296875 139.835938 333.644531 138.632812 338.023438 137.539062 C 342.398438 136.441406 346.800781 135.453125 351.226562 134.574219 C 355.652344 133.691406 360.097656 132.921875 364.5625 132.257812 C 369.027344 131.597656 373.503906 131.042969 377.996094 130.601562 C 382.484375 130.160156 386.984375 129.828125 391.492188 129.605469 C 396 129.382812 400.511719 129.273438 405.023438 129.273438 C 409.535156 129.273438 414.046875 129.382812 418.554688 129.605469 C 423.0625 129.828125 427.558594 130.160156 432.050781 130.601562 C 436.542969 131.042969 441.019531 131.597656 445.484375 132.257812 C 449.949219 132.921875 454.394531 133.691406 458.820312 134.574219 C 463.246094 135.453125 467.648438 136.441406 472.023438 137.539062 C 476.402344 138.632812 480.75 139.835938 485.070312 141.148438 C 489.386719 142.457031 493.671875 143.871094 497.917969 145.394531 C 502.167969 146.914062 506.378906 148.535156 510.546875 150.265625 C 514.714844 151.992188 518.839844 153.820312 522.921875 155.75 C 527 157.679688 531.03125 159.707031 535.007812 161.832031 C 538.988281 163.960938 542.914062 166.183594 546.785156 168.503906 C 550.65625 170.824219 554.46875 173.238281 558.21875 175.746094 C 561.972656 178.253906 565.660156 180.851562 569.285156 183.539062 C 572.910156 186.226562 576.46875 189.003906 579.957031 191.867188 C 583.445312 194.730469 586.859375 197.675781 590.203125 200.707031 C 593.546875 203.738281 596.816406 206.847656 600.007812 210.039062 C 603.195312 213.230469 606.308594 216.496094 609.339844 219.839844 C 612.371094 223.183594 615.316406 226.601562 618.179688 230.089844 C 621.042969 233.578125 623.816406 237.132812 626.503906 240.757812 C 629.195312 244.382812 631.792969 248.070312 634.296875 251.824219 C 636.804688 255.578125 639.21875 259.386719 641.539062 263.257812 C 643.859375 267.128906 646.082031 271.054688 648.210938 275.035156 C 650.339844 279.015625 652.367188 283.042969 654.296875 287.125 C 656.226562 291.203125 658.054688 295.328125 659.78125 299.496094 C 661.507812 303.667969 663.132812 307.875 664.652344 312.125 C 666.171875 316.375 667.585938 320.65625 668.898438 324.976562 C 670.207031 329.292969 671.410156 333.644531 672.507812 338.019531 C 673.601562 342.398438 674.59375 346.800781 675.472656 351.226562 C 676.351562 355.652344 677.125 360.097656 677.785156 364.5625 C 678.449219 369.023438 679 373.503906 679.441406 377.992188 C 679.886719 382.484375 680.21875 386.984375 680.4375 391.492188 C 680.660156 396 680.769531 400.507812 680.769531 405.023438 Z M 680.769531 405.023438 " fill-opacity="1" fill-rule="nonzero"/><path fill="#f4bc33" d="M 350.585938 94.308594 L 405.023438 0 L 459.457031 94.308594 Z M 350.585938 94.308594 " fill-opacity="1" fill-rule="nonzero"/><path fill="#f4bc33" d="M 202.523438 163.160156 L 202.507812 54.265625 L 296.808594 108.722656 Z M 202.523438 163.160156 " fill-opacity="1" fill-rule="nonzero"/><path fill="#f4bc33" d="M 108.722656 296.8125 L 54.261719 202.519531 L 163.15625 202.527344 Z M 108.722656 296.8125 " fill-opacity="1" fill-rule="nonzero"/><path fill="#f4bc33" d="M 94.308594 459.460938 L 0 405.035156 L 94.308594 350.59375 Z M 94.308594 459.460938 " fill-opacity="1" fill-rule="nonzero"/><path fill="#f4bc33" d="M 163.15625 607.523438 L 54.261719 607.550781 L 108.722656 513.242188 Z M 163.15625 607.523438 " fill-opacity="1" fill-rule="nonzero"/><path fill="#f4bc33" d="M 296.808594 701.328125 L 202.515625 755.796875 L 202.523438 646.894531 Z M 296.808594 701.328125 " fill-opacity="1" fill-rule="nonzero"/><path fill="#f4bc33" d="M 459.457031 715.738281 L 405.03125 810.058594 L 350.589844 715.738281 Z M 459.457031 715.738281 " fill-opacity="1" fill-rule="nonzero"/><path fill="#f4bc33" d="M 607.519531 646.894531 L 607.546875 755.789062 L 513.234375 701.328125 Z M 607.519531 646.894531 " fill-opacity="1" fill-rule="nonzero"/><path fill="#f4bc33" d="M 701.324219 513.242188 L 755.800781 607.535156 L 646.890625 607.523438 Z M 701.324219 513.242188 " fill-opacity="1" fill-rule="nonzero"/><path fill="#f4bc33" d="M 715.734375 350.59375 L 810.054688 405.019531 L 715.734375 459.460938 Z M 715.734375 350.59375 " fill-opacity="1" fill-rule="nonzero"/><path fill="#f4bc33" d="M 646.890625 202.527344 L 755.785156 202.503906 L 701.324219 296.8125 Z M 646.890625 202.527344 " fill-opacity="1" fill-rule="nonzero"/><path fill="#f4bc33" d="M 513.234375 108.726562 L 607.53125 54.257812 L 607.519531 163.160156 Z M 513.234375 108.726562 " fill-opacity="1" fill-rule="nonzero"/></svg>